# This file uses centimeters as units for non-parametric coordinates.

mtllib blackboard.mtl
g default
v 0.538149 -3.817803 0.258072
v 0.534706 -3.840170 0.235972
v 0.533446 -3.870723 0.227882
v 0.534706 -3.901277 0.235972
v 0.538149 -3.923644 0.258072
v 0.542853 -3.931831 0.288261
v 0.547556 -3.923644 0.318450
v 0.550999 -3.901277 0.340551
v 0.552260 -3.870723 0.348640
v 0.550999 -3.840170 0.340551
v 0.547556 -3.817803 0.318450
v 0.542853 -3.809616 0.288261
v -0.547556 -3.817803 0.427226
v -0.550999 -3.840170 0.405125
v -0.552260 -3.870723 0.397036
v -0.550999 -3.901277 0.405125
v -0.547556 -3.923644 0.427226
v -0.542853 -3.931831 0.457415
v -0.538149 -3.923644 0.487604
v -0.534706 -3.901277 0.509704
v -0.533446 -3.870723 0.517794
v -0.534706 -3.840170 0.509704
v -0.538149 -3.817803 0.487604
v -0.542853 -3.809616 0.457415
v 0.542853 -3.870723 0.288261
v -0.542853 -3.870723 0.457415
v -1.343028 -3.817803 0.385799
v -1.340335 -3.840170 0.363595
v -1.339349 -3.870723 0.355467
v -1.340335 -3.901277 0.363595
v -1.343028 -3.923644 0.385799
v -1.346707 -3.931831 0.416130
v -1.350386 -3.923644 0.446461
v -1.353079 -3.901277 0.468665
v -1.354064 -3.870723 0.476793
v -1.353079 -3.840170 0.468665
v -1.350386 -3.817803 0.446461
v -1.346707 -3.809616 0.416130
v -2.056900 -3.817803 0.299215
v -2.054207 -3.840170 0.277011
v -2.053221 -3.870723 0.268883
v -2.054207 -3.901277 0.277011
v -2.056900 -3.923644 0.299215
v -2.060578 -3.931831 0.329546
v -2.064257 -3.923644 0.359877
v -2.066950 -3.901277 0.382081
v -2.067936 -3.870723 0.390209
v -2.066950 -3.840170 0.382081
v -2.064257 -3.817803 0.359877
v -2.060578 -3.809616 0.329546
v -1.346707 -3.870723 0.416130
v -2.060578 -3.870723 0.329546
v -7.676802 -3.817803 0.641159
v -7.659326 -3.840170 0.627200
v -7.652929 -3.870723 0.622091
v -7.659326 -3.901277 0.627200
v -7.676802 -3.923644 0.641159
v -7.700675 -3.931831 0.660228
v -7.724547 -3.923644 0.679297
v -7.742023 -3.901277 0.693256
v -7.748420 -3.870723 0.698365
v -7.742023 -3.840170 0.693256
v -7.724547 -3.817803 0.679297
v -7.700675 -3.809616 0.660228
v -8.004147 -3.817803 0.231344
v -7.986670 -3.840170 0.217385
v -7.980274 -3.870723 0.212276
v -7.986670 -3.901277 0.217385
v -8.004147 -3.923644 0.231344
v -8.028020 -3.931831 0.250413
v -8.051892 -3.923644 0.269481
v -8.069368 -3.901277 0.283441
v -8.075765 -3.870723 0.288550
v -8.069368 -3.840170 0.283441
v -8.051892 -3.817803 0.269481
v -8.028020 -3.809616 0.250413
v -7.700675 -3.870723 0.660228
v -8.028020 -3.870723 0.250413
v -8.859655 -4.046915 0.118066
v 8.859655 -4.046915 0.118066
v -8.859655 4.046915 0.118066
v 8.859655 4.046915 0.118066
v -8.859655 4.046915 -0.118066
v 8.859655 4.046915 -0.118066
v -8.859655 -4.046915 -0.118066
v 8.859655 -4.046915 -0.118066
v -8.859655 -3.941822 0.118066
v -8.859655 -3.941822 -0.118066
v 8.859655 -3.941822 -0.118066
v 8.859655 -3.941822 0.118066
v -8.859655 -4.046915 0.817943
v 8.859655 -4.046915 0.817943
v 8.859655 -3.941822 0.817943
v -8.859655 -3.941822 0.817943
v -8.859655 -3.941822 0.731309
v 8.859655 -3.941822 0.731309
v 8.859655 -4.046915 0.731309
v -8.859655 -4.046915 0.731309
v -8.859655 -3.843160 0.731309
v 8.859655 -3.843160 0.731309
v -8.859655 -3.843160 0.817943
v 8.859655 -3.843160 0.817943
vt 0.635316 0.078125
vt 0.578125 0.020934
vt 0.500000 0.000000
vt 0.421875 0.020934
vt 0.364684 0.078125
vt 0.343750 0.156250
vt 0.364684 0.234375
vt 0.421875 0.291566
vt 0.500000 0.312500
vt 0.578125 0.291566
vt 0.635316 0.234375
vt 0.656250 0.156250
vt 0.375000 0.312500
vt 0.395833 0.312500
vt 0.416667 0.312500
vt 0.437500 0.312500
vt 0.458333 0.312500
vt 0.479167 0.312500
vt 0.500000 0.312500
vt 0.520833 0.312500
vt 0.541667 0.312500
vt 0.562500 0.312500
vt 0.583333 0.312500
vt 0.604167 0.312500
vt 0.625000 0.312500
vt 0.375000 0.688440
vt 0.395833 0.688440
vt 0.416667 0.688440
vt 0.437500 0.688440
vt 0.458333 0.688440
vt 0.479167 0.688440
vt 0.500000 0.688440
vt 0.520833 0.688440
vt 0.541667 0.688440
vt 0.562500 0.688440
vt 0.583333 0.688440
vt 0.604167 0.688440
vt 0.625000 0.688440
vt 0.635316 0.765625
vt 0.578125 0.708434
vt 0.500000 0.687500
vt 0.421875 0.708434
vt 0.364684 0.765625
vt 0.343750 0.843750
vt 0.364684 0.921875
vt 0.421875 0.979066
vt 0.500000 1.000000
vt 0.578125 0.979066
vt 0.635316 0.921875
vt 0.656250 0.843750
vt 0.500000 0.150000
vt 0.500000 0.837500
vt 0.375000 0.312500
vt 0.395833 0.312500
vt 0.395833 0.688440
vt 0.375000 0.688440
vt 0.416667 0.312500
vt 0.416667 0.688440
vt 0.437500 0.312500
vt 0.437500 0.688440
vt 0.458333 0.312500
vt 0.458333 0.688440
vt 0.479167 0.312500
vt 0.479167 0.688440
vt 0.500000 0.312500
vt 0.500000 0.688440
vt 0.520833 0.312500
vt 0.520833 0.688440
vt 0.541667 0.312500
vt 0.541667 0.688440
vt 0.562500 0.312500
vt 0.562500 0.688440
vt 0.583333 0.312500
vt 0.583333 0.688440
vt 0.604167 0.312500
vt 0.604167 0.688440
vt 0.625000 0.312500
vt 0.625000 0.688440
vt 0.578125 0.020934
vt 0.635316 0.078125
vt 0.500000 0.150000
vt 0.500000 0.000000
vt 0.421875 0.020934
vt 0.364684 0.078125
vt 0.343750 0.156250
vt 0.364684 0.234375
vt 0.421875 0.291566
vt 0.500000 0.312500
vt 0.578125 0.291566
vt 0.635316 0.234375
vt 0.656250 0.156250
vt 0.635316 0.921875
vt 0.578125 0.979066
vt 0.500000 0.837500
vt 0.500000 1.000000
vt 0.421875 0.979066
vt 0.364684 0.921875
vt 0.343750 0.843750
vt 0.364684 0.765625
vt 0.421875 0.708434
vt 0.500000 0.687500
vt 0.578125 0.708434
vt 0.635316 0.765625
vt 0.656250 0.843750
vt 0.375000 0.312500
vt 0.395833 0.312500
vt 0.395833 0.688440
vt 0.375000 0.688440
vt 0.416667 0.312500
vt 0.416667 0.688440
vt 0.437500 0.312500
vt 0.437500 0.688440
vt 0.458333 0.312500
vt 0.458333 0.688440
vt 0.479167 0.312500
vt 0.479167 0.688440
vt 0.500000 0.312500
vt 0.500000 0.688440
vt 0.520833 0.312500
vt 0.520833 0.688440
vt 0.541667 0.312500
vt 0.541667 0.688440
vt 0.562500 0.312500
vt 0.562500 0.688440
vt 0.583333 0.312500
vt 0.583333 0.688440
vt 0.604167 0.312500
vt 0.604167 0.688440
vt 0.625000 0.312500
vt 0.625000 0.688440
vt 0.578125 0.020934
vt 0.635316 0.078125
vt 0.500000 0.150000
vt 0.500000 0.000000
vt 0.421875 0.020934
vt 0.364684 0.078125
vt 0.343750 0.156250
vt 0.364684 0.234375
vt 0.421875 0.291566
vt 0.500000 0.312500
vt 0.578125 0.291566
vt 0.635316 0.234375
vt 0.656250 0.156250
vt 0.635316 0.921875
vt 0.578125 0.979066
vt 0.500000 0.837500
vt 0.500000 1.000000
vt 0.421875 0.979066
vt 0.364684 0.921875
vt 0.343750 0.843750
vt 0.364684 0.765625
vt 0.421875 0.708434
vt 0.500000 0.687500
vt 0.578125 0.708434
vt 0.635316 0.765625
vt 0.656250 0.843750
vt 0.375000 0.000000
vt 0.625000 0.000000
vt 0.625000 0.003246
vt 0.375000 0.003246
vt 0.375000 0.250000
vt 0.625000 0.250000
vt 0.625000 0.500000
vt 0.375000 0.500000
vt 0.375000 0.746754
vt 0.625000 0.746754
vt 0.625000 0.750000
vt 0.375000 0.750000
vt 0.625000 1.000000
vt 0.375000 1.000000
vt 0.625000 0.000000
vt 0.875000 0.000000
vt 0.875000 0.003246
vt 0.625000 0.003246
vt 0.125000 0.000000
vt 0.375000 0.000000
vt 0.375000 0.003246
vt 0.125000 0.003246
vt 0.125000 0.250000
vt 0.875000 0.250000
vt 0.625000 0.000000
vt 0.375000 0.000000
vt 0.625000 0.003246
vt 0.375000 0.003246
vt 0.625000 0.003246
vt 0.375000 0.003246
vt 0.375000 0.003246
vt 0.625000 0.003246
vn -0.108854 0.707104 -0.698680
vn -0.108854 0.707104 -0.698680
vn -0.108854 0.707104 -0.698680
vn -0.108854 0.707104 -0.698680
vn -0.148698 0.258819 -0.954412
vn -0.148698 0.258819 -0.954412
vn -0.148698 0.258819 -0.954412
vn -0.148698 0.258819 -0.954412
vn -0.148698 -0.258819 -0.954412
vn -0.148698 -0.258819 -0.954412
vn -0.148698 -0.258819 -0.954412
vn -0.148698 -0.258819 -0.954412
vn -0.108855 -0.707111 -0.698673
vn -0.108855 -0.707111 -0.698674
vn -0.108855 -0.707111 -0.698673
vn -0.108855 -0.707111 -0.698673
vn -0.039844 -0.965924 -0.255741
vn -0.039844 -0.965924 -0.255741
vn -0.039844 -0.965924 -0.255741
vn -0.039844 -0.965924 -0.255741
vn 0.039844 -0.965924 0.255741
vn 0.039844 -0.965924 0.255741
vn 0.039844 -0.965924 0.255741
vn 0.039844 -0.965924 0.255741
vn 0.108855 -0.707111 0.698674
vn 0.108855 -0.707111 0.698674
vn 0.108855 -0.707111 0.698674
vn 0.108855 -0.707111 0.698674
vn 0.148698 -0.258820 0.954412
vn 0.148698 -0.258820 0.954412
vn 0.148698 -0.258820 0.954412
vn 0.148698 -0.258820 0.954412
vn 0.148698 0.258820 0.954411
vn 0.148698 0.258820 0.954411
vn 0.148698 0.258820 0.954411
vn 0.148698 0.258820 0.954412
vn 0.108854 0.707104 0.698681
vn 0.108854 0.707104 0.698681
vn 0.108854 0.707104 0.698681
vn 0.108854 0.707104 0.698681
vn 0.039844 0.965927 0.255728
vn 0.039844 0.965927 0.255728
vn 0.039844 0.965927 0.255728
vn 0.039844 0.965927 0.255728
vn -0.039844 0.965927 -0.255728
vn -0.039844 0.965927 -0.255728
vn -0.039844 0.965927 -0.255728
vn -0.039844 0.965927 -0.255728
vn 0.988079 0.000002 -0.153945
vn 0.988079 0.000000 -0.153946
vn 0.988080 0.000000 -0.153943
vn 0.988080 0.000001 -0.153941
vn 0.988080 -0.000001 -0.153943
vn 0.988080 0.000000 -0.153944
vn 0.988080 0.000000 -0.153943
vn 0.988080 0.000000 -0.153944
vn 0.988080 0.000000 -0.153943
vn 0.988080 -0.000001 -0.153941
vn 0.988080 -0.000001 -0.153944
vn 0.988079 0.000000 -0.153945
vn 0.988080 0.000000 -0.153943
vn -0.988079 0.000000 0.153945
vn -0.988080 -0.000001 0.153944
vn -0.988080 -0.000000 0.153943
vn -0.988080 -0.000001 0.153941
vn -0.988080 0.000000 0.153943
vn -0.988080 0.000000 0.153944
vn -0.988080 0.000000 0.153943
vn -0.988080 0.000000 0.153944
vn -0.988080 -0.000002 0.153943
vn -0.988080 0.000000 0.153941
vn -0.988079 0.000002 0.153945
vn -0.988079 0.000000 0.153946
vn -0.988080 0.000000 0.153943
vn 0.085139 0.707104 -0.701965
vn 0.085139 0.707104 -0.701965
vn 0.085139 0.707104 -0.701965
vn 0.085139 0.707104 -0.701965
vn 0.116303 0.258820 -0.958898
vn 0.116303 0.258820 -0.958898
vn 0.116303 0.258820 -0.958898
vn 0.116303 0.258820 -0.958898
vn 0.116303 -0.258820 -0.958898
vn 0.116303 -0.258820 -0.958898
vn 0.116303 -0.258820 -0.958898
vn 0.116303 -0.258820 -0.958898
vn 0.085139 -0.707104 -0.701966
vn 0.085139 -0.707104 -0.701966
vn 0.085139 -0.707104 -0.701966
vn 0.085139 -0.707104 -0.701966
vn 0.031163 -0.965926 -0.256937
vn 0.031163 -0.965925 -0.256937
vn 0.031163 -0.965926 -0.256937
vn 0.031163 -0.965925 -0.256937
vn -0.031163 -0.965926 0.256937
vn -0.031163 -0.965925 0.256937
vn -0.031163 -0.965925 0.256937
vn -0.031163 -0.965925 0.256937
vn -0.085139 -0.707104 0.701965
vn -0.085139 -0.707104 0.701965
vn -0.085139 -0.707104 0.701965
vn -0.085139 -0.707104 0.701965
vn -0.116303 -0.258820 0.958898
vn -0.116303 -0.258820 0.958898
vn -0.116303 -0.258820 0.958898
vn -0.116303 -0.258820 0.958898
vn -0.116303 0.258820 0.958898
vn -0.116303 0.258820 0.958898
vn -0.116303 0.258820 0.958898
vn -0.116303 0.258820 0.958898
vn -0.085139 0.707104 0.701965
vn -0.085139 0.707104 0.701965
vn -0.085139 0.707104 0.701965
vn -0.085139 0.707104 0.701965
vn -0.031163 0.965923 0.256947
vn -0.031163 0.965923 0.256947
vn -0.031163 0.965923 0.256947
vn -0.031163 0.965923 0.256947
vn 0.031163 0.965925 -0.256937
vn 0.031163 0.965926 -0.256937
vn 0.031163 0.965925 -0.256937
vn 0.031163 0.965926 -0.256937
vn 0.992725 0.000004 0.120404
vn 0.992725 0.000000 0.120404
vn 0.992725 -0.000000 0.120404
vn 0.992725 -0.000000 0.120404
vn 0.992725 -0.000004 0.120404
vn 0.992725 0.000000 0.120405
vn 0.992725 0.000000 0.120405
vn 0.992725 0.000000 0.120404
vn 0.992725 0.000000 0.120405
vn 0.992725 0.000000 0.120405
vn 0.992725 0.000000 0.120404
vn 0.992725 0.000000 0.120404
vn 0.992725 0.000000 0.120405
vn -0.992725 0.000006 -0.120403
vn -0.992725 0.000002 -0.120402
vn -0.992725 -0.000000 -0.120406
vn -0.992725 0.000000 -0.120404
vn -0.992725 -0.000000 -0.120403
vn -0.992725 -0.000004 -0.120403
vn -0.992724 0.000000 -0.120409
vn -0.992724 0.000004 -0.120408
vn -0.992725 0.000008 -0.120406
vn -0.992725 -0.000004 -0.120408
vn -0.992725 -0.000012 -0.120406
vn -0.992724 -0.000004 -0.120408
vn -0.992724 0.000000 -0.120409
vn 0.552480 0.707119 -0.441304
vn 0.552480 0.707119 -0.441304
vn 0.552480 0.707119 -0.441304
vn 0.552480 0.707119 -0.441304
vn 0.754724 0.258788 -0.602844
vn 0.754724 0.258788 -0.602844
vn 0.754724 0.258788 -0.602844
vn 0.754724 0.258788 -0.602844
vn 0.754721 -0.258787 -0.602849
vn 0.754721 -0.258787 -0.602849
vn 0.754721 -0.258787 -0.602849
vn 0.754721 -0.258787 -0.602848
vn 0.552482 -0.707121 -0.441298
vn 0.552482 -0.707121 -0.441298
vn 0.552482 -0.707121 -0.441298
vn 0.552482 -0.707121 -0.441298
vn 0.202225 -0.965925 -0.161538
vn 0.202225 -0.965925 -0.161538
vn 0.202225 -0.965925 -0.161538
vn 0.202225 -0.965925 -0.161538
vn -0.202228 -0.965925 0.161534
vn -0.202228 -0.965925 0.161534
vn -0.202228 -0.965925 0.161534
vn -0.202228 -0.965925 0.161534
vn -0.552487 -0.707114 0.441303
vn -0.552487 -0.707114 0.441303
vn -0.552487 -0.707114 0.441303
vn -0.552487 -0.707114 0.441303
vn -0.754721 -0.258801 0.602842
vn -0.754721 -0.258801 0.602842
vn -0.754721 -0.258801 0.602842
vn -0.754721 -0.258801 0.602842
vn -0.754721 0.258801 0.602842
vn -0.754721 0.258801 0.602842
vn -0.754721 0.258801 0.602842
vn -0.754721 0.258801 0.602842
vn -0.552485 0.707111 0.441309
vn -0.552485 0.707111 0.441309
vn -0.552485 0.707111 0.441309
vn -0.552485 0.707111 0.441309
vn -0.202228 0.965925 0.161534
vn -0.202228 0.965925 0.161534
vn -0.202228 0.965925 0.161534
vn -0.202228 0.965925 0.161534
vn 0.202225 0.965926 -0.161531
vn 0.202225 0.965926 -0.161531
vn 0.202225 0.965926 -0.161531
vn 0.202225 0.965926 -0.161531
vn 0.624106 0.000000 0.781340
vn 0.624105 0.000000 0.781341
vn 0.624104 0.000003 0.781341
vn 0.624105 0.000000 0.781340
vn 0.624104 0.000008 0.781341
vn 0.624103 0.000008 0.781343
vn 0.624101 0.000000 0.781343
vn 0.624098 0.000000 0.781346
vn 0.624105 0.000000 0.781340
vn 0.624110 0.000000 0.781336
vn 0.624105 0.000008 0.781340
vn 0.624102 0.000008 0.781343
vn 0.624101 0.000000 0.781343
vn -0.624096 0.000000 -0.781348
vn -0.624105 0.000000 -0.781340
vn -0.624105 0.000001 -0.781340
vn -0.624109 0.000000 -0.781337
vn -0.624101 0.000000 -0.781343
vn -0.624096 0.000000 -0.781348
vn -0.624104 0.000000 -0.781342
vn -0.624110 -0.000008 -0.781337
vn -0.624110 0.000008 -0.781337
vn -0.624114 0.000000 -0.781334
vn -0.624110 0.000000 -0.781337
vn -0.624108 0.000016 -0.781338
vn -0.624101 0.000000 -0.781343
vn 0.000000 0.000000 1.000000
vn 0.000000 0.000000 1.000000
vn 0.000000 0.000000 1.000000
vn 0.000000 0.000000 1.000000
vn 0.000000 1.000000 0.000000
vn 0.000000 1.000000 0.000000
vn 0.000000 1.000000 0.000000
vn 0.000000 1.000000 0.000000
vn 0.000000 0.000000 -1.000000
vn 0.000000 0.000000 -1.000000
vn 0.000000 0.000000 -1.000000
vn 0.000000 0.000000 -1.000000
vn 0.000000 -1.000000 0.000000
vn 0.000000 -1.000000 0.000000
vn 0.000000 -1.000000 0.000000
vn 0.000000 -1.000000 0.000000
vn 1.000000 0.000000 0.000000
vn 1.000000 0.000000 0.000000
vn 1.000000 0.000000 0.000000
vn 1.000000 0.000000 0.000000
vn -1.000000 0.000000 0.000000
vn -1.000000 0.000000 0.000000
vn -1.000000 0.000000 0.000000
vn -1.000000 0.000000 0.000000
vn -1.000000 0.000000 0.000000
vn -1.000000 0.000000 0.000000
vn 0.000000 0.000000 -1.000000
vn 0.000000 0.000000 -1.000000
vn 1.000000 0.000000 0.000000
vn 1.000000 0.000000 0.000000
vn 0.000000 0.000000 1.000000
vn 0.000000 0.000000 1.000000
vn 0.000000 0.000000 1.000000
vn 0.000000 0.000000 1.000000
vn 0.000000 -1.000000 0.000000
vn 0.000000 -1.000000 0.000000
vn 0.000000 -1.000000 0.000000
vn 0.000000 -1.000000 0.000000
vn 1.000000 0.000000 0.000000
vn 1.000000 0.000000 0.000000
vn 1.000000 0.000000 0.000000
vn 1.000000 0.000000 0.000000
vn 0.000000 1.000000 0.000000
vn 0.000000 1.000000 0.000000
vn 0.000000 1.000000 0.000000
vn 0.000000 1.000000 0.000000
vn -1.000000 0.000000 0.000000
vn -1.000000 0.000000 0.000000
vn -1.000000 0.000000 0.000000
vn -1.000000 0.000000 0.000000
vn 0.000000 1.000000 0.000000
vn 0.000000 1.000000 0.000000
vn 0.000000 1.000000 0.000000
vn 0.000000 1.000000 0.000000
vn 1.000000 0.000000 0.000000
vn 1.000000 0.000000 0.000000
vn 0.000000 -1.000000 0.000000
vn 0.000000 -1.000000 0.000000
vn -1.000000 0.000000 0.000000
vn -1.000000 0.000000 0.000000
vn 0.000000 0.000000 -1.000000
vn 0.000000 0.000000 -1.000000
vn 0.000000 0.000000 -1.000000
vn 0.000000 0.000000 -1.000000
vn -1.000000 0.000000 0.000000
vn -1.000000 0.000000 0.000000
vn -1.000000 0.000000 0.000000
vn -1.000000 0.000000 0.000000
vn 0.000000 0.000000 1.000000
vn 0.000000 0.000000 1.000000
vn 0.000000 0.000000 1.000000
vn 0.000000 0.000000 1.000000
vn 1.000000 0.000000 0.000000
vn 1.000000 0.000000 0.000000
vn 1.000000 0.000000 0.000000
vn 1.000000 0.000000 0.000000
s off
g pCylinder4
usemtl initialShadingGroup
f 1/13/1 2/14/2 14/27/3 13/26/4
f 2/14/5 3/15/6 15/28/7 14/27/8
f 3/15/9 4/16/10 16/29/11 15/28/12
f 4/16/13 5/17/14 17/30/15 16/29/16
f 5/17/17 6/18/18 18/31/19 17/30/20
f 6/18/21 7/19/22 19/32/23 18/31/24
f 7/19/25 8/20/26 20/33/27 19/32/28
f 8/20/29 9/21/30 21/34/31 20/33/32
f 9/21/33 10/22/34 22/35/35 21/34/36
f 10/22/37 11/23/38 23/36/39 22/35/40
f 11/23/41 12/24/42 24/37/43 23/36/44
f 12/24/45 1/25/46 13/38/47 24/37/48
s 1
f 2/2/49 1/1/50 25/51/51
f 3/3/52 2/2/49 25/51/51
f 4/4/53 3/3/52 25/51/51
f 5/5/54 4/4/53 25/51/51
f 6/6/55 5/5/54 25/51/51
f 7/7/56 6/6/55 25/51/51
f 8/8/57 7/7/56 25/51/51
f 9/9/58 8/8/57 25/51/51
f 10/10/59 9/9/58 25/51/51
f 11/11/60 10/10/59 25/51/51
f 12/12/61 11/11/60 25/51/51
f 1/1/50 12/12/61 25/51/51
s 2
f 13/49/62 14/48/63 26/52/64
f 14/48/63 15/47/65 26/52/64
f 15/47/65 16/46/66 26/52/64
f 16/46/66 17/45/67 26/52/64
f 17/45/67 18/44/68 26/52/64
f 18/44/68 19/43/69 26/52/64
f 19/43/69 20/42/70 26/52/64
f 20/42/70 21/41/71 26/52/64
f 21/41/71 22/40/72 26/52/64
f 22/40/72 23/39/73 26/52/64
f 23/39/73 24/50/74 26/52/64
f 24/50/74 13/49/62 26/52/64
s off
f 27/53/75 28/54/76 40/55/77 39/56/78
f 28/54/79 29/57/80 41/58/81 40/55/82
f 29/57/83 30/59/84 42/60/85 41/58/86
f 30/59/87 31/61/88 43/62/89 42/60/90
f 31/61/91 32/63/92 44/64/93 43/62/94
f 32/63/95 33/65/96 45/66/97 44/64/98
f 33/65/99 34/67/100 46/68/101 45/66/102
f 34/67/103 35/69/104 47/70/105 46/68/106
f 35/69/107 36/71/108 48/72/109 47/70/110
f 36/71/111 37/73/112 49/74/113 48/72/114
f 37/73/115 38/75/116 50/76/117 49/74/118
f 38/75/119 27/77/120 39/78/121 50/76/122
s 3
f 28/79/123 27/80/124 51/81/125
f 29/82/126 28/79/123 51/81/125
f 30/83/127 29/82/126 51/81/125
f 31/84/128 30/83/127 51/81/125
f 32/85/129 31/84/128 51/81/125
f 33/86/130 32/85/129 51/81/125
f 34/87/131 33/86/130 51/81/125
f 35/88/132 34/87/131 51/81/125
f 36/89/133 35/88/132 51/81/125
f 37/90/134 36/89/133 51/81/125
f 38/91/135 37/90/134 51/81/125
f 27/80/124 38/91/135 51/81/125
s 4
f 39/92/136 40/93/137 52/94/138
f 40/93/137 41/95/139 52/94/138
f 41/95/139 42/96/140 52/94/138
f 42/96/140 43/97/141 52/94/138
f 43/97/141 44/98/142 52/94/138
f 44/98/142 45/99/143 52/94/138
f 45/99/143 46/100/144 52/94/138
f 46/100/144 47/101/145 52/94/138
f 47/101/145 48/102/146 52/94/138
f 48/102/146 49/103/147 52/94/138
f 49/103/147 50/104/148 52/94/138
f 50/104/148 39/92/136 52/94/138
s off
f 53/105/149 54/106/150 66/107/151 65/108/152
f 54/106/153 55/109/154 67/110/155 66/107/156
f 55/109/157 56/111/158 68/112/159 67/110/160
f 56/111/161 57/113/162 69/114/163 68/112/164
f 57/113/165 58/115/166 70/116/167 69/114/168
f 58/115/169 59/117/170 71/118/171 70/116/172
f 59/117/173 60/119/174 72/120/175 71/118/176
f 60/119/177 61/121/178 73/122/179 72/120/180
f 61/121/181 62/123/182 74/124/183 73/122/184
f 62/123/185 63/125/186 75/126/187 74/124/188
f 63/125/189 64/127/190 76/128/191 75/126/192
f 64/127/193 53/129/194 65/130/195 76/128/196
s 5
f 54/131/197 53/132/198 77/133/199
f 55/134/200 54/131/197 77/133/199
f 56/135/201 55/134/200 77/133/199
f 57/136/202 56/135/201 77/133/199
f 58/137/203 57/136/202 77/133/199
f 59/138/204 58/137/203 77/133/199
f 60/139/205 59/138/204 77/133/199
f 61/140/206 60/139/205 77/133/199
f 62/141/207 61/140/206 77/133/199
f 63/142/208 62/141/207 77/133/199
f 64/143/209 63/142/208 77/133/199
f 53/132/198 64/143/209 77/133/199
s 6
f 65/144/210 66/145/211 78/146/212
f 66/145/211 67/147/213 78/146/212
f 67/147/213 68/148/214 78/146/212
f 68/148/214 69/149/215 78/146/212
f 69/149/215 70/150/216 78/146/212
f 70/150/216 71/151/217 78/146/212
f 71/151/217 72/152/218 78/146/212
f 72/152/218 73/153/219 78/146/212
f 73/153/219 74/154/220 78/146/212
f 74/154/220 75/155/221 78/146/212
f 75/155/221 76/156/222 78/146/212
f 76/156/222 65/144/210 78/146/212
s off
f 91/157/223 92/158/224 93/159/225 94/160/226
f 81/161/227 82/162/228 84/163/229 83/164/230
s 7
f 88/165/231 89/166/232 86/167/233 85/168/234
s off
f 85/168/235 86/167/236 80/169/237 79/170/238
s 8
f 80/171/239 86/172/240 89/173/241 90/174/242
s 9
f 85/175/243 79/176/244 87/177/245 88/178/246
f 88/178/246 87/177/245 81/161/247 83/179/248
s 7
f 83/164/249 84/163/250 89/166/232 88/165/231
s 8
f 90/174/242 89/173/241 84/180/251 82/162/252
s off
f 87/177/253 90/174/254 82/162/255 81/161/256
s 10
f 79/176/257 80/171/258 97/181/259 98/182/260
s 11
f 80/171/261 90/174/262 96/183/263 97/181/264
s off
f 90/174/265 87/177/266 95/184/267 96/183/268
s 12
f 87/177/269 79/176/270 98/182/271 95/184/272
s off
f 100/185/273 99/186/274 101/187/275 102/188/276
s 11
f 97/181/264 96/183/263 93/159/277 92/158/278
s 10
f 98/182/260 97/181/259 92/158/279 91/157/280
s 12
f 95/184/272 98/182/271 91/157/281 94/160/282
s off
f 96/183/283 95/184/284 99/186/285 100/185/286
f 95/184/287 94/160/288 101/187/289 99/186/290
f 94/160/291 93/159/292 102/188/293 101/187/294
f 93/159/295 96/183/296 100/185/297 102/188/298
