# This file uses centimeters as units for non-parametric coordinates.

mtllib switch.mtl
g default
v 1.088104 0.848284 -8.162384
v 1.427826 0.848284 -8.162384
v 0.951843 1.060557 -6.722961
v 1.564056 1.060557 -6.722961
v 0.951843 1.134075 -6.733818
v 1.564056 1.134075 -6.733818
v 1.088104 0.921802 -8.173218
v 1.427826 0.921802 -8.173218
v 0.998322 1.071139 -6.651207
v 0.998322 1.144657 -6.662048
v 1.113892 0.921802 -8.173218
v 1.113892 0.848284 -8.162384
v 1.524506 1.071139 -6.651207
v 1.524506 1.144657 -6.662048
v 1.405853 0.921802 -8.173218
v 1.405853 0.848284 -8.162384
v 1.055664 1.077333 -6.609207
v 1.055664 1.150851 -6.620064
v 1.145721 0.921802 -8.173218
v 1.145721 0.848284 -8.162384
v 1.473389 1.077333 -6.609207
v 1.473389 1.150851 -6.620064
v 1.377441 0.921802 -8.173218
v 1.377441 0.848284 -8.162384
v 0.429413 -0.195749 -8.112411
v 2.106293 -0.195749 -8.112411
v 0.429413 1.967002 -8.112411
v 2.106293 1.967002 -8.112411
v 0.429413 1.967002 -8.466850
v 2.106293 1.967002 -8.466850
v 0.429413 -0.195749 -8.466850
v 2.106293 -0.195749 -8.466850
v 1.561035 1.054882 -8.090408
v 1.437103 1.178785 -8.090408
v 1.267853 1.224137 -8.090408
v 1.098572 1.178785 -8.090408
v 0.974670 1.054882 -8.090408
v 0.929321 0.885626 -8.090408
v 0.974670 0.716371 -8.090408
v 1.098572 0.592467 -8.090408
v 1.267853 0.547115 -8.090408
v 1.437103 0.592467 -8.090408
v 1.561035 0.716371 -8.090408
v 1.606384 0.885626 -8.090408
v 1.561035 1.054882 -8.005989
v 1.437103 1.178785 -8.005989
v 1.267853 1.224137 -8.005989
v 1.098572 1.178785 -8.005989
v 0.974670 1.054882 -8.005989
v 0.929321 0.885626 -8.005989
v 0.974670 0.716371 -8.005989
v 1.098572 0.592467 -8.005989
v 1.267853 0.547115 -8.005989
v 1.437103 0.592467 -8.005989
v 1.561035 0.716371 -8.005989
v 1.606384 0.885626 -8.005989
v 1.267853 0.885626 -8.090408
v 1.535309 1.040029 -8.005989
v 1.422211 1.153060 -8.005989
v 1.267853 1.194433 -8.005989
v 1.113464 1.153060 -8.005989
v 1.000397 1.040029 -8.005989
v 0.959045 0.885626 -8.005989
v 1.000397 0.731223 -8.005989
v 1.113464 0.618192 -8.005989
v 1.267853 0.576820 -8.005989
v 1.422211 0.618192 -8.005989
v 1.535309 0.731223 -8.005989
v 1.576630 0.885626 -8.005989
v 1.535309 1.040029 -8.080780
v 1.422211 1.153060 -8.080780
v 1.267853 0.885626 -8.080780
v 1.267853 1.194433 -8.080780
v 1.113464 1.153060 -8.080780
v 1.000397 1.040029 -8.080780
v 0.959045 0.885626 -8.080780
v 1.000397 0.731223 -8.080780
v 1.113464 0.618192 -8.080780
v 1.267853 0.576820 -8.080780
v 1.422211 0.618192 -8.080780
v 1.535309 0.731223 -8.080780
v 1.576630 0.885626 -8.080780
vt 0.375000 0.000000
vt 0.393969 0.000000
vt 0.393969 0.250000
vt 0.375000 0.250000
vt 0.393969 0.500000
vt 0.375000 0.500000
vt 0.393969 0.750000
vt 0.375000 0.750000
vt 0.393969 1.000000
vt 0.375000 1.000000
vt 0.625000 0.250000
vt 0.625000 0.000000
vt 0.875000 0.000000
vt 0.875000 0.250000
vt 0.125000 0.000000
vt 0.125000 0.250000
vt 0.417380 0.250000
vt 0.417380 0.500000
vt 0.417380 0.750000
vt 0.417380 1.000000
vt 0.417380 0.000000
vt 0.608857 0.250000
vt 0.625000 0.500000
vt 0.608857 0.500000
vt 0.625000 0.750000
vt 0.608857 0.750000
vt 0.608857 1.000000
vt 0.625000 1.000000
vt 0.608857 0.000000
vt 0.587966 0.250000
vt 0.587966 0.500000
vt 0.587966 0.750000
vt 0.587966 1.000000
vt 0.587966 0.000000
vt 0.375000 0.000000
vt 0.625000 0.000000
vt 0.625000 0.250000
vt 0.375000 0.250000
vt 0.625000 0.500000
vt 0.375000 0.500000
vt 0.625000 0.750000
vt 0.375000 0.750000
vt 0.625000 1.000000
vt 0.375000 1.000000
vt 0.875000 0.000000
vt 0.875000 0.250000
vt 0.125000 0.000000
vt 0.125000 0.250000
vt 0.375000 0.312500
vt 0.395833 0.312500
vt 0.395833 0.688440
vt 0.375000 0.688440
vt 0.416667 0.312500
vt 0.416667 0.688440
vt 0.437500 0.312500
vt 0.437500 0.688440
vt 0.458333 0.312500
vt 0.458333 0.688440
vt 0.479167 0.312500
vt 0.479167 0.688440
vt 0.500000 0.312500
vt 0.500000 0.688440
vt 0.520833 0.312500
vt 0.520833 0.688440
vt 0.541667 0.312500
vt 0.541667 0.688440
vt 0.562500 0.312500
vt 0.562500 0.688440
vt 0.583333 0.312500
vt 0.583333 0.688440
vt 0.604167 0.312500
vt 0.604167 0.688440
vt 0.625000 0.312500
vt 0.625000 0.688440
vt 0.578125 0.020934
vt 0.635316 0.078125
vt 0.500000 0.150000
vt 0.500000 0.000000
vt 0.421875 0.020934
vt 0.364684 0.078125
vt 0.343750 0.156250
vt 0.364684 0.234375
vt 0.421875 0.291566
vt 0.500000 0.312500
vt 0.578125 0.291566
vt 0.635316 0.234375
vt 0.656250 0.156250
vt 0.635316 0.921875
vt 0.578125 0.979066
vt 0.500000 0.837500
vt 0.500000 1.000000
vt 0.421875 0.979066
vt 0.364684 0.921875
vt 0.343750 0.843750
vt 0.364684 0.765625
vt 0.421875 0.708434
vt 0.500000 0.687500
vt 0.578125 0.708434
vt 0.635316 0.765625
vt 0.656250 0.843750
vt 0.635316 0.921875
vt 0.578125 0.979066
vt 0.578125 0.979066
vt 0.635316 0.921875
vt 0.500000 1.000000
vt 0.500000 1.000000
vt 0.421875 0.979066
vt 0.421875 0.979066
vt 0.364684 0.921875
vt 0.364684 0.921875
vt 0.343750 0.843750
vt 0.343750 0.843750
vt 0.364684 0.765625
vt 0.364684 0.765625
vt 0.421875 0.708434
vt 0.421875 0.708434
vt 0.500000 0.687500
vt 0.500000 0.687500
vt 0.578125 0.708434
vt 0.578125 0.708434
vt 0.635316 0.765625
vt 0.635316 0.765625
vt 0.656250 0.843750
vt 0.656250 0.843750
vn 0.000000 -0.989300 0.145893
vn 0.000000 -0.989300 0.145893
vn 0.000000 -0.989300 0.145893
vn 0.000000 -0.989300 0.145893
vn -0.841987 0.078761 0.533718
vn -0.742220 0.097835 0.662976
vn -0.742219 0.097835 0.662977
vn -0.841987 0.078761 0.533718
vn -0.000001 0.989300 -0.145894
vn 0.000029 0.989301 -0.145892
vn 0.000029 0.989301 -0.145892
vn -0.000013 0.989300 -0.145895
vn 0.000000 -0.145788 -0.989316
vn 0.000000 -0.145788 -0.989316
vn 0.000000 -0.145788 -0.989316
vn 0.000000 -0.145788 -0.989316
vn 0.995645 -0.013607 -0.092225
vn 0.995645 -0.013607 -0.092225
vn 0.995645 -0.013607 -0.092225
vn 0.995645 -0.013607 -0.092225
vn -0.995643 -0.013608 -0.092245
vn -0.995643 -0.013608 -0.092245
vn -0.995643 -0.013608 -0.092245
vn -0.995643 -0.013608 -0.092245
vn -0.088988 0.145498 0.985349
vn -0.088998 0.145497 0.985348
vn -0.000002 0.989300 -0.145895
vn -0.000003 0.989300 -0.145895
vn 0.000000 -0.145788 -0.989316
vn 0.000000 -0.145788 -0.989316
vn 0.000000 -0.989300 0.145893
vn 0.000000 -0.989300 0.145893
vn 0.785246 0.090394 0.612550
vn 0.877974 0.069886 0.473580
vn 0.877974 0.069886 0.473580
vn 0.785246 0.090394 0.612551
vn -0.000033 0.989301 -0.145892
vn 0.000001 0.989300 -0.145894
vn 0.000015 0.989300 -0.145895
vn -0.000033 0.989301 -0.145892
vn 0.000000 -0.145788 -0.989316
vn 0.000000 -0.145788 -0.989316
vn 0.000000 -0.145788 -0.989316
vn 0.000000 -0.145788 -0.989316
vn 0.000000 -0.989300 0.145893
vn 0.000000 -0.989300 0.145893
vn 0.000000 -0.989300 0.145893
vn 0.000000 -0.989300 0.145893
vn 0.090159 0.145483 0.985244
vn 0.090170 0.145483 0.985243
vn 0.000002 0.989300 -0.145895
vn 0.000003 0.989300 -0.145895
vn 0.000000 -0.145788 -0.989316
vn 0.000000 -0.145788 -0.989316
vn 0.000000 -0.989300 0.145893
vn 0.000000 -0.989300 0.145893
vn 0.000000 0.000000 1.000000
vn 0.000000 0.000000 1.000000
vn 0.000000 0.000000 1.000000
vn 0.000000 0.000000 1.000000
vn 0.000000 1.000000 0.000000
vn 0.000000 1.000000 0.000000
vn 0.000000 1.000000 0.000000
vn 0.000000 1.000000 0.000000
vn 0.000000 0.000000 -1.000000
vn 0.000000 0.000000 -1.000000
vn 0.000000 0.000000 -1.000000
vn 0.000000 0.000000 -1.000000
vn 0.000000 -1.000000 0.000000
vn 0.000000 -1.000000 0.000000
vn 0.000000 -1.000000 0.000000
vn 0.000000 -1.000000 0.000000
vn 1.000000 0.000000 0.000000
vn 1.000000 0.000000 0.000000
vn 1.000000 0.000000 0.000000
vn 1.000000 0.000000 0.000000
vn -1.000000 0.000000 0.000000
vn -1.000000 0.000000 0.000000
vn -1.000000 0.000000 0.000000
vn -1.000000 0.000000 0.000000
vn 0.707028 0.707186 0.000000
vn 0.707028 0.707186 0.000000
vn 0.707028 0.707186 0.000000
vn 0.707028 0.707186 0.000000
vn 0.258825 0.965924 0.000000
vn 0.258825 0.965924 0.000000
vn 0.258825 0.965924 0.000000
vn 0.258825 0.965924 0.000000
vn -0.258782 0.965936 0.000000
vn -0.258782 0.965936 0.000000
vn -0.258782 0.965936 0.000000
vn -0.258782 0.965936 0.000000
vn -0.707115 0.707098 0.000000
vn -0.707115 0.707098 0.000000
vn -0.707115 0.707098 0.000000
vn -0.707115 0.707098 0.000000
vn -0.965930 0.258804 0.000000
vn -0.965930 0.258804 0.000000
vn -0.965930 0.258804 0.000000
vn -0.965930 0.258804 0.000000
vn -0.965930 -0.258804 0.000000
vn -0.965930 -0.258804 0.000000
vn -0.965930 -0.258804 0.000000
vn -0.965930 -0.258804 0.000000
vn -0.707115 -0.707098 0.000000
vn -0.707115 -0.707098 0.000000
vn -0.707115 -0.707098 0.000000
vn -0.707115 -0.707098 0.000000
vn -0.258782 -0.965936 0.000000
vn -0.258782 -0.965936 0.000000
vn -0.258782 -0.965936 0.000000
vn -0.258782 -0.965936 0.000000
vn 0.258825 -0.965924 0.000000
vn 0.258825 -0.965924 0.000000
vn 0.258825 -0.965924 0.000000
vn 0.258825 -0.965924 0.000000
vn 0.707028 -0.707186 0.000000
vn 0.707028 -0.707186 0.000000
vn 0.707028 -0.707186 0.000000
vn 0.707028 -0.707186 0.000000
vn 0.965930 -0.258805 0.000000
vn 0.965930 -0.258805 0.000000
vn 0.965930 -0.258805 0.000000
vn 0.965930 -0.258805 0.000000
vn 0.965930 0.258805 0.000000
vn 0.965930 0.258805 0.000000
vn 0.965930 0.258805 0.000000
vn 0.965930 0.258805 0.000000
vn 0.000000 0.000000 -1.000000
vn 0.000000 0.000000 -1.000000
vn 0.000000 0.000000 -1.000000
vn 0.000000 0.000000 -1.000000
vn 0.000000 0.000000 -1.000000
vn 0.000000 0.000000 -1.000000
vn 0.000000 0.000000 -1.000000
vn 0.000000 0.000000 -1.000000
vn 0.000000 0.000000 -1.000000
vn 0.000000 0.000000 -1.000000
vn 0.000000 0.000000 -1.000000
vn 0.000000 0.000000 -1.000000
vn 0.000000 0.000000 -1.000000
vn 0.000002 0.000000 1.000000
vn -0.000003 0.000000 1.000000
vn 0.000000 0.000000 1.000000
vn 0.000000 0.000000 1.000000
vn 0.000005 0.000000 1.000000
vn 0.000000 0.000000 1.000000
vn 0.000000 0.000000 1.000000
vn -0.000002 0.000000 1.000000
vn 0.000002 0.000000 1.000000
vn 0.000000 0.000000 1.000000
vn -0.000005 0.000000 1.000000
vn 0.000000 0.000000 1.000000
vn 0.000000 0.000000 1.000000
vn 0.000005 0.000000 1.000000
vn 0.000005 0.000000 1.000000
vn 0.000005 0.000000 1.000000
vn 0.000005 0.000000 1.000000
vn 0.000000 0.000000 1.000000
vn 0.000000 0.000000 1.000000
vn 0.000000 0.000000 1.000000
vn 0.000000 0.000000 1.000000
vn -0.000003 0.000000 1.000000
vn -0.000003 0.000000 1.000000
vn -0.000003 0.000000 1.000000
vn -0.000003 0.000000 1.000000
vn -0.000003 0.000000 1.000000
vn -0.000003 0.000000 1.000000
vn -0.000003 0.000000 1.000000
vn -0.000003 0.000000 1.000000
vn 0.000005 0.000000 1.000000
vn 0.000005 0.000000 1.000000
vn 0.000005 0.000000 1.000000
vn 0.000005 0.000000 1.000000
vn 0.000000 0.000000 1.000000
vn 0.000000 0.000000 1.000000
vn 0.000000 0.000000 1.000000
vn 0.000000 0.000000 1.000000
vn -0.000005 0.000000 1.000000
vn -0.000005 0.000000 1.000000
vn -0.000005 0.000000 1.000000
vn -0.000005 0.000000 1.000000
vn 0.000000 0.000000 1.000000
vn 0.000000 0.000000 1.000000
vn 0.000000 0.000000 1.000000
vn 0.000000 0.000000 1.000000
vn 0.000003 0.000000 1.000000
vn 0.000003 0.000000 1.000000
vn 0.000003 0.000000 1.000000
vn 0.000003 0.000000 1.000000
vn 0.000003 0.000000 1.000000
vn 0.000003 0.000000 1.000000
vn 0.000003 0.000000 1.000000
vn 0.000003 0.000000 1.000000
vn -0.000005 0.000000 1.000000
vn -0.000005 0.000000 1.000000
vn -0.000005 0.000000 1.000000
vn -0.000005 0.000000 1.000000
vn 0.000000 0.000000 1.000000
vn 0.000000 0.000000 1.000000
vn 0.000000 0.000000 1.000000
vn 0.000000 0.000000 1.000000
vn -0.706898 -0.707315 0.000000
vn -0.706898 -0.707315 0.000000
vn -0.706898 -0.707315 0.000000
vn -0.706898 -0.707315 0.000000
vn -0.258889 -0.965907 0.000000
vn -0.258889 -0.965907 0.000000
vn -0.258889 -0.965907 0.000000
vn -0.258889 -0.965907 0.000000
vn 0.258841 -0.965920 0.000000
vn 0.258841 -0.965920 0.000000
vn 0.258841 -0.965920 0.000000
vn 0.258841 -0.965920 0.000000
vn 0.706993 -0.707220 0.000000
vn 0.706993 -0.707220 0.000000
vn 0.706993 -0.707220 0.000000
vn 0.706993 -0.707220 0.000000
vn 0.965959 -0.258695 0.000000
vn 0.965959 -0.258695 0.000000
vn 0.965959 -0.258695 0.000000
vn 0.965959 -0.258695 0.000000
vn 0.965959 0.258695 0.000000
vn 0.965959 0.258695 0.000000
vn 0.965959 0.258695 0.000000
vn 0.965959 0.258695 0.000000
vn 0.706993 0.707220 0.000000
vn 0.706993 0.707220 0.000000
vn 0.706993 0.707220 0.000000
vn 0.706993 0.707220 0.000000
vn 0.258841 0.965920 0.000000
vn 0.258841 0.965920 0.000000
vn 0.258841 0.965920 0.000000
vn 0.258841 0.965920 0.000000
vn -0.258889 0.965907 0.000000
vn -0.258889 0.965907 0.000000
vn -0.258889 0.965907 0.000000
vn -0.258889 0.965907 0.000000
vn -0.706898 0.707315 0.000000
vn -0.706898 0.707315 0.000000
vn -0.706898 0.707315 0.000000
vn -0.706898 0.707315 0.000000
vn -0.966007 0.258517 0.000000
vn -0.966007 0.258517 0.000000
vn -0.966007 0.258517 0.000000
vn -0.966007 0.258517 0.000000
vn -0.966007 -0.258517 0.000000
vn -0.966007 -0.258517 0.000000
vn -0.966007 -0.258517 0.000000
vn -0.966007 -0.258517 0.000000
s 1
g maze:polySurface38
usemtl initialShadingGroup
f 1/1/1 12/2/2 9/3/3 3/4/4
s 2
f 3/4/5 9/3/6 10/5/7 5/6/8
s 3
f 11/7/9 7/8/10 5/6/11 10/5/12
s 4
f 7/8/13 11/7/14 12/9/15 1/10/16
s off
f 4/11/17 2/12/18 8/13/19 6/14/20
f 7/15/21 1/1/22 3/4/23 5/16/24
s 2
f 9/3/6 17/17/25 18/18/26 10/5/7
s 3
f 18/18/27 19/19/28 11/7/9 10/5/12
s 4
f 12/9/15 11/7/14 19/19/29 20/20/30
s 1
f 9/3/3 12/2/2 20/21/31 17/17/32
s 2
f 13/22/33 4/11/34 6/23/35 14/24/36
s 3
f 8/25/37 15/26/38 14/24/39 6/23/40
s 4
f 16/27/41 15/26/42 8/25/43 2/28/44
s 1
f 16/29/45 2/12/46 4/11/47 13/22/48
s 2
f 17/17/25 21/30/49 22/31/50 18/18/26
s 3
f 22/31/51 23/32/52 19/19/28 18/18/27
s 4
f 20/20/30 19/19/29 23/32/53 24/33/54
s 1
f 17/17/32 20/21/31 24/34/55 21/30/56
s 2
f 21/30/49 13/22/33 14/24/36 22/31/50
s 3
f 14/24/39 15/26/38 23/32/52 22/31/51
s 4
f 24/33/54 23/32/53 15/26/42 16/27/41
s 1
f 24/34/55 16/29/45 13/22/48 21/30/56
s off
f 25/35/57 26/36/58 28/37/59 27/38/60
f 27/38/61 28/37/62 30/39/63 29/40/64
f 29/40/65 30/39/66 32/41/67 31/42/68
f 31/42/69 32/41/70 26/43/71 25/44/72
f 26/36/73 32/45/74 30/46/75 28/37/76
f 31/47/77 25/35/78 27/38/79 29/48/80
f 33/49/81 34/50/82 46/51/83 45/52/84
f 34/50/85 35/53/86 47/54/87 46/51/88
f 35/53/89 36/55/90 48/56/91 47/54/92
f 36/55/93 37/57/94 49/58/95 48/56/96
f 37/57/97 38/59/98 50/60/99 49/58/100
f 38/59/101 39/61/102 51/62/103 50/60/104
f 39/61/105 40/63/106 52/64/107 51/62/108
f 40/63/109 41/65/110 53/66/111 52/64/112
f 41/65/113 42/67/114 54/68/115 53/66/116
f 42/67/117 43/69/118 55/70/119 54/68/120
f 43/69/121 44/71/122 56/72/123 55/70/124
f 44/71/125 33/73/126 45/74/127 56/72/128
s 9
f 34/75/129 33/76/130 57/77/131
f 35/78/132 34/75/129 57/77/131
f 36/79/133 35/78/132 57/77/131
f 37/80/134 36/79/133 57/77/131
f 38/81/135 37/80/134 57/77/131
f 39/82/136 38/81/135 57/77/131
f 40/83/137 39/82/136 57/77/131
f 41/84/138 40/83/137 57/77/131
f 42/85/139 41/84/138 57/77/131
f 43/86/140 42/85/139 57/77/131
f 44/87/141 43/86/140 57/77/131
f 33/76/130 44/87/141 57/77/131
s 10
f 70/88/142 71/89/143 72/90/144
f 71/89/143 73/91/145 72/90/144
f 73/91/145 74/92/146 72/90/144
f 74/92/146 75/93/147 72/90/144
f 75/93/147 76/94/148 72/90/144
f 76/94/148 77/95/149 72/90/144
f 77/95/149 78/96/150 72/90/144
f 78/96/150 79/97/151 72/90/144
f 79/97/151 80/98/152 72/90/144
f 80/98/152 81/99/153 72/90/144
f 81/99/153 82/100/154 72/90/144
f 82/100/154 70/88/142 72/90/144
s off
f 45/101/155 46/102/156 59/103/157 58/104/158
f 46/102/159 47/105/160 60/106/161 59/103/162
f 47/105/163 48/107/164 61/108/165 60/106/166
f 48/107/167 49/109/168 62/110/169 61/108/170
f 49/109/171 50/111/172 63/112/173 62/110/174
f 50/111/175 51/113/176 64/114/177 63/112/178
f 51/113/179 52/115/180 65/116/181 64/114/182
f 52/115/183 53/117/184 66/118/185 65/116/186
f 53/117/187 54/119/188 67/120/189 66/118/190
f 54/119/191 55/121/192 68/122/193 67/120/194
f 55/121/195 56/123/196 69/124/197 68/122/198
f 56/123/199 45/101/200 58/104/201 69/124/202
f 58/104/203 59/103/204 71/89/205 70/88/206
f 59/103/207 60/106/208 73/91/209 71/89/210
f 60/106/211 61/108/212 74/92/213 73/91/214
f 61/108/215 62/110/216 75/93/217 74/92/218
f 62/110/219 63/112/220 76/94/221 75/93/222
f 63/112/223 64/114/224 77/95/225 76/94/226
f 64/114/227 65/116/228 78/96/229 77/95/230
f 65/116/231 66/118/232 79/97/233 78/96/234
f 66/118/235 67/120/236 80/98/237 79/97/238
f 67/120/239 68/122/240 81/99/241 80/98/242
f 68/122/243 69/124/244 82/100/245 81/99/246
f 69/124/247 58/104/248 70/88/249 82/100/250
